<svg xmlns="http://www.w3.org/2000/svg" xmlns:xlink="http://www.w3.org/1999/xlink" width="500" zoomAndPan="magnify" viewBox="0 0 375 374.999991" height="500" preserveAspectRatio="xMidYMid meet" version="1.0"><defs><g/><clipPath id="94e9ba2984"><path d="M 86 91.984375 L 288.996094 91.984375 L 288.996094 193.234375 L 86 193.234375 Z M 86 91.984375 " clip-rule="nonzero"/></clipPath><clipPath id="73b1f12a32"><path d="M 88.082031 129.761719 C 108.683594 142.140625 132.75 149.890625 154.820312 156.285156 C 138.574219 155.8125 122.863281 153.4375 106.386719 148.058594 C 118.375 190.808594 166.914062 163.949219 174.15625 148.496094 C 152.617188 118.359375 123.757812 110.816406 107.078125 135.011719 L 89.492188 125.925781 C 106.707031 87.71875 156.566406 89.882812 185.730469 117.390625 C 230.867188 56.625 320.1875 116.574219 277.214844 174.621094 C 258.476562 149.691406 235.605469 134.441406 209.164062 123.144531 C 225.949219 125.964844 242.429688 129.59375 258.144531 141.984375 C 253.945312 107.101562 220.839844 101.914062 188.417969 120.300781 C 214.097656 148.601562 222.609375 169.191406 254.792969 159.65625 L 274.34375 178.160156 C 245.136719 203.53125 210.230469 197.1875 180.171875 156.640625 C 154.859375 211.882812 72.523438 188.410156 88.085938 129.75 Z M 88.082031 129.761719 " clip-rule="evenodd"/></clipPath><linearGradient x1="-8.131187" gradientTransform="matrix(0.571004, 0, 0, 0.571002, 86.140253, 91.985778)" y1="79.611313" x2="361.166928" gradientUnits="userSpaceOnUse" y2="114.125003" id="0cc31fcdc0"><stop stop-opacity="1" stop-color="rgb(53.29895%, 75.299072%, 19.599915%)" offset="0"/><stop stop-opacity="1" stop-color="rgb(53.29895%, 75.299072%, 19.599915%)" offset="0.0444855"/><stop stop-opacity="1" stop-color="rgb(53.29895%, 75.299072%, 19.599915%)" offset="0.125"/><stop stop-opacity="1" stop-color="rgb(53.29895%, 75.299072%, 19.599915%)" offset="0.15625"/><stop stop-opacity="1" stop-color="rgb(53.077698%, 75.074768%, 19.573975%)" offset="0.160156"/><stop stop-opacity="1" stop-color="rgb(52.857971%, 74.85199%, 19.549561%)" offset="0.164062"/><stop stop-opacity="1" stop-color="rgb(52.578735%, 74.569702%, 19.517517%)" offset="0.167969"/><stop stop-opacity="1" stop-color="rgb(52.2995%, 74.287415%, 19.487%)" offset="0.171875"/><stop stop-opacity="1" stop-color="rgb(52.020264%, 74.005127%, 19.454956%)" offset="0.175781"/><stop stop-opacity="1" stop-color="rgb(51.742554%, 73.724365%, 19.424438%)" offset="0.179687"/><stop stop-opacity="1" stop-color="rgb(51.463318%, 73.442078%, 19.392395%)" offset="0.183594"/><stop stop-opacity="1" stop-color="rgb(51.185608%, 73.15979%, 19.361877%)" offset="0.1875"/><stop stop-opacity="1" stop-color="rgb(50.906372%, 72.877502%, 19.329834%)" offset="0.191406"/><stop stop-opacity="1" stop-color="rgb(50.628662%, 72.596741%, 19.299316%)" offset="0.195312"/><stop stop-opacity="1" stop-color="rgb(50.349426%, 72.314453%, 19.267273%)" offset="0.199219"/><stop stop-opacity="1" stop-color="rgb(50.07019%, 72.032166%, 19.236755%)" offset="0.203125"/><stop stop-opacity="1" stop-color="rgb(49.790955%, 71.749878%, 19.204712%)" offset="0.207031"/><stop stop-opacity="1" stop-color="rgb(49.513245%, 71.46759%, 19.174194%)" offset="0.210937"/><stop stop-opacity="1" stop-color="rgb(49.234009%, 71.185303%, 19.142151%)" offset="0.214844"/><stop stop-opacity="1" stop-color="rgb(48.956299%, 70.904541%, 19.111633%)" offset="0.21875"/><stop stop-opacity="1" stop-color="rgb(48.677063%, 70.622253%, 19.07959%)" offset="0.222656"/><stop stop-opacity="1" stop-color="rgb(48.397827%, 70.339966%, 19.049072%)" offset="0.226562"/><stop stop-opacity="1" stop-color="rgb(48.118591%, 70.057678%, 19.017029%)" offset="0.230469"/><stop stop-opacity="1" stop-color="rgb(47.840881%, 69.775391%, 18.986511%)" offset="0.234375"/><stop stop-opacity="1" stop-color="rgb(47.561646%, 69.493103%, 18.954468%)" offset="0.238281"/><stop stop-opacity="1" stop-color="rgb(47.283936%, 69.212341%, 18.92395%)" offset="0.242187"/><stop stop-opacity="1" stop-color="rgb(47.0047%, 68.930054%, 18.891907%)" offset="0.246094"/><stop stop-opacity="1" stop-color="rgb(46.72699%, 68.647766%, 18.861389%)" offset="0.25"/><stop stop-opacity="1" stop-color="rgb(46.447754%, 68.365479%, 18.829346%)" offset="0.253906"/><stop stop-opacity="1" stop-color="rgb(46.168518%, 68.084717%, 18.798828%)" offset="0.257812"/><stop stop-opacity="1" stop-color="rgb(45.889282%, 67.802429%, 18.766785%)" offset="0.261719"/><stop stop-opacity="1" stop-color="rgb(45.611572%, 67.520142%, 18.736267%)" offset="0.265625"/><stop stop-opacity="1" stop-color="rgb(45.332336%, 67.237854%, 18.704224%)" offset="0.269531"/><stop stop-opacity="1" stop-color="rgb(45.054626%, 66.955566%, 18.673706%)" offset="0.273438"/><stop stop-opacity="1" stop-color="rgb(44.775391%, 66.673279%, 18.641663%)" offset="0.277344"/><stop stop-opacity="1" stop-color="rgb(44.497681%, 66.392517%, 18.611145%)" offset="0.28125"/><stop stop-opacity="1" stop-color="rgb(44.218445%, 66.110229%, 18.580627%)" offset="0.285156"/><stop stop-opacity="1" stop-color="rgb(43.939209%, 65.827942%, 18.55011%)" offset="0.289062"/><stop stop-opacity="1" stop-color="rgb(43.659973%, 65.545654%, 18.518066%)" offset="0.292969"/><stop stop-opacity="1" stop-color="rgb(43.382263%, 65.263367%, 18.487549%)" offset="0.296875"/><stop stop-opacity="1" stop-color="rgb(43.103027%, 64.981079%, 18.455505%)" offset="0.300781"/><stop stop-opacity="1" stop-color="rgb(42.825317%, 64.700317%, 18.424988%)" offset="0.304688"/><stop stop-opacity="1" stop-color="rgb(42.546082%, 64.41803%, 18.392944%)" offset="0.308594"/><stop stop-opacity="1" stop-color="rgb(42.266846%, 64.135742%, 18.362427%)" offset="0.3125"/><stop stop-opacity="1" stop-color="rgb(41.98761%, 63.853455%, 18.330383%)" offset="0.316406"/><stop stop-opacity="1" stop-color="rgb(41.7099%, 63.571167%, 18.299866%)" offset="0.320312"/><stop stop-opacity="1" stop-color="rgb(41.430664%, 63.288879%, 18.267822%)" offset="0.324219"/><stop stop-opacity="1" stop-color="rgb(41.152954%, 63.008118%, 18.237305%)" offset="0.328125"/><stop stop-opacity="1" stop-color="rgb(40.873718%, 62.72583%, 18.205261%)" offset="0.332031"/><stop stop-opacity="1" stop-color="rgb(40.596008%, 62.443542%, 18.174744%)" offset="0.335938"/><stop stop-opacity="1" stop-color="rgb(40.316772%, 62.161255%, 18.1427%)" offset="0.339844"/><stop stop-opacity="1" stop-color="rgb(40.037537%, 61.880493%, 18.112183%)" offset="0.34375"/><stop stop-opacity="1" stop-color="rgb(39.758301%, 61.598206%, 18.080139%)" offset="0.347656"/><stop stop-opacity="1" stop-color="rgb(39.480591%, 61.315918%, 18.049622%)" offset="0.351562"/><stop stop-opacity="1" stop-color="rgb(39.201355%, 61.03363%, 18.017578%)" offset="0.355469"/><stop stop-opacity="1" stop-color="rgb(38.923645%, 60.751343%, 17.987061%)" offset="0.359375"/><stop stop-opacity="1" stop-color="rgb(38.644409%, 60.469055%, 17.955017%)" offset="0.363281"/><stop stop-opacity="1" stop-color="rgb(38.365173%, 60.188293%, 17.9245%)" offset="0.367187"/><stop stop-opacity="1" stop-color="rgb(38.085938%, 59.906006%, 17.892456%)" offset="0.371094"/><stop stop-opacity="1" stop-color="rgb(37.808228%, 59.623718%, 17.861938%)" offset="0.375"/><stop stop-opacity="1" stop-color="rgb(37.528992%, 59.341431%, 17.829895%)" offset="0.378906"/><stop stop-opacity="1" stop-color="rgb(37.251282%, 59.059143%, 17.799377%)" offset="0.382812"/><stop stop-opacity="1" stop-color="rgb(36.972046%, 58.776855%, 17.767334%)" offset="0.386719"/><stop stop-opacity="1" stop-color="rgb(36.694336%, 58.496094%, 17.736816%)" offset="0.390625"/><stop stop-opacity="1" stop-color="rgb(36.4151%, 58.213806%, 17.704773%)" offset="0.394531"/><stop stop-opacity="1" stop-color="rgb(36.135864%, 57.931519%, 17.674255%)" offset="0.398438"/><stop stop-opacity="1" stop-color="rgb(35.856628%, 57.649231%, 17.642212%)" offset="0.402344"/><stop stop-opacity="1" stop-color="rgb(35.578918%, 57.366943%, 17.611694%)" offset="0.40625"/><stop stop-opacity="1" stop-color="rgb(35.299683%, 57.084656%, 17.579651%)" offset="0.410156"/><stop stop-opacity="1" stop-color="rgb(35.021973%, 56.803894%, 17.549133%)" offset="0.414062"/><stop stop-opacity="1" stop-color="rgb(34.742737%, 56.521606%, 17.51709%)" offset="0.417969"/><stop stop-opacity="1" stop-color="rgb(34.465027%, 56.239319%, 17.486572%)" offset="0.421875"/><stop stop-opacity="1" stop-color="rgb(34.185791%, 55.957031%, 17.454529%)" offset="0.425781"/><stop stop-opacity="1" stop-color="rgb(33.906555%, 55.67627%, 17.424011%)" offset="0.429687"/><stop stop-opacity="1" stop-color="rgb(33.627319%, 55.393982%, 17.391968%)" offset="0.433594"/><stop stop-opacity="1" stop-color="rgb(33.349609%, 55.111694%, 17.36145%)" offset="0.4375"/><stop stop-opacity="1" stop-color="rgb(33.070374%, 54.829407%, 17.329407%)" offset="0.441406"/><stop stop-opacity="1" stop-color="rgb(32.792664%, 54.547119%, 17.298889%)" offset="0.445312"/><stop stop-opacity="1" stop-color="rgb(32.513428%, 54.264832%, 17.266846%)" offset="0.449219"/><stop stop-opacity="1" stop-color="rgb(32.234192%, 53.98407%, 17.236328%)" offset="0.453125"/><stop stop-opacity="1" stop-color="rgb(31.954956%, 53.701782%, 17.204285%)" offset="0.457031"/><stop stop-opacity="1" stop-color="rgb(31.677246%, 53.419495%, 17.173767%)" offset="0.460937"/><stop stop-opacity="1" stop-color="rgb(31.39801%, 53.137207%, 17.141724%)" offset="0.464844"/><stop stop-opacity="1" stop-color="rgb(31.1203%, 52.854919%, 17.111206%)" offset="0.46875"/><stop stop-opacity="1" stop-color="rgb(30.841064%, 52.572632%, 17.079163%)" offset="0.472656"/><stop stop-opacity="1" stop-color="rgb(30.563354%, 52.29187%, 17.048645%)" offset="0.476562"/><stop stop-opacity="1" stop-color="rgb(30.284119%, 52.009583%, 17.016602%)" offset="0.480469"/><stop stop-opacity="1" stop-color="rgb(30.004883%, 51.727295%, 16.986084%)" offset="0.484375"/><stop stop-opacity="1" stop-color="rgb(29.725647%, 51.445007%, 16.954041%)" offset="0.488281"/><stop stop-opacity="1" stop-color="rgb(29.447937%, 51.16272%, 16.923523%)" offset="0.492187"/><stop stop-opacity="1" stop-color="rgb(29.168701%, 50.880432%, 16.891479%)" offset="0.496094"/><stop stop-opacity="1" stop-color="rgb(28.890991%, 50.59967%, 16.860962%)" offset="0.5"/><stop stop-opacity="1" stop-color="rgb(28.611755%, 50.317383%, 16.828918%)" offset="0.503906"/><stop stop-opacity="1" stop-color="rgb(28.334045%, 50.035095%, 16.798401%)" offset="0.507812"/><stop stop-opacity="1" stop-color="rgb(28.05481%, 49.752808%, 16.766357%)" offset="0.511719"/><stop stop-opacity="1" stop-color="rgb(27.775574%, 49.472046%, 16.73584%)" offset="0.515625"/><stop stop-opacity="1" stop-color="rgb(27.496338%, 49.189758%, 16.703796%)" offset="0.519531"/><stop stop-opacity="1" stop-color="rgb(27.218628%, 48.907471%, 16.673279%)" offset="0.523438"/><stop stop-opacity="1" stop-color="rgb(26.939392%, 48.625183%, 16.641235%)" offset="0.527344"/><stop stop-opacity="1" stop-color="rgb(26.661682%, 48.342896%, 16.610718%)" offset="0.53125"/><stop stop-opacity="1" stop-color="rgb(26.382446%, 48.060608%, 16.578674%)" offset="0.535156"/><stop stop-opacity="1" stop-color="rgb(26.10321%, 47.779846%, 16.548157%)" offset="0.539062"/><stop stop-opacity="1" stop-color="rgb(25.823975%, 47.497559%, 16.516113%)" offset="0.542969"/><stop stop-opacity="1" stop-color="rgb(25.546265%, 47.215271%, 16.485596%)" offset="0.546875"/><stop stop-opacity="1" stop-color="rgb(25.267029%, 46.932983%, 16.453552%)" offset="0.550781"/><stop stop-opacity="1" stop-color="rgb(24.989319%, 46.650696%, 16.423035%)" offset="0.554688"/><stop stop-opacity="1" stop-color="rgb(24.710083%, 46.368408%, 16.390991%)" offset="0.558594"/><stop stop-opacity="1" stop-color="rgb(24.432373%, 46.087646%, 16.360474%)" offset="0.5625"/><stop stop-opacity="1" stop-color="rgb(24.153137%, 45.805359%, 16.32843%)" offset="0.566406"/><stop stop-opacity="1" stop-color="rgb(23.873901%, 45.523071%, 16.297913%)" offset="0.570312"/><stop stop-opacity="1" stop-color="rgb(23.594666%, 45.240784%, 16.265869%)" offset="0.574219"/><stop stop-opacity="1" stop-color="rgb(23.316956%, 44.958496%, 16.235352%)" offset="0.578125"/><stop stop-opacity="1" stop-color="rgb(23.03772%, 44.676208%, 16.203308%)" offset="0.582031"/><stop stop-opacity="1" stop-color="rgb(22.76001%, 44.395447%, 16.172791%)" offset="0.585938"/><stop stop-opacity="1" stop-color="rgb(22.480774%, 44.113159%, 16.142273%)" offset="0.589844"/><stop stop-opacity="1" stop-color="rgb(22.201538%, 43.830872%, 16.111755%)" offset="0.59375"/><stop stop-opacity="1" stop-color="rgb(21.922302%, 43.548584%, 16.079712%)" offset="0.597656"/><stop stop-opacity="1" stop-color="rgb(21.644592%, 43.267822%, 16.049194%)" offset="0.601562"/><stop stop-opacity="1" stop-color="rgb(21.365356%, 42.985535%, 16.017151%)" offset="0.605469"/><stop stop-opacity="1" stop-color="rgb(21.087646%, 42.703247%, 15.986633%)" offset="0.609375"/><stop stop-opacity="1" stop-color="rgb(20.808411%, 42.420959%, 15.95459%)" offset="0.613281"/><stop stop-opacity="1" stop-color="rgb(20.530701%, 42.138672%, 15.924072%)" offset="0.617187"/><stop stop-opacity="1" stop-color="rgb(20.251465%, 41.856384%, 15.892029%)" offset="0.621094"/><stop stop-opacity="1" stop-color="rgb(19.972229%, 41.575623%, 15.861511%)" offset="0.625"/><stop stop-opacity="1" stop-color="rgb(19.692993%, 41.293335%, 15.829468%)" offset="0.628906"/><stop stop-opacity="1" stop-color="rgb(19.415283%, 41.011047%, 15.79895%)" offset="0.632812"/><stop stop-opacity="1" stop-color="rgb(19.136047%, 40.72876%, 15.766907%)" offset="0.636719"/><stop stop-opacity="1" stop-color="rgb(18.858337%, 40.446472%, 15.736389%)" offset="0.640625"/><stop stop-opacity="1" stop-color="rgb(18.579102%, 40.164185%, 15.704346%)" offset="0.644531"/><stop stop-opacity="1" stop-color="rgb(18.301392%, 39.883423%, 15.673828%)" offset="0.648437"/><stop stop-opacity="1" stop-color="rgb(18.022156%, 39.601135%, 15.641785%)" offset="0.652344"/><stop stop-opacity="1" stop-color="rgb(17.74292%, 39.318848%, 15.611267%)" offset="0.65625"/><stop stop-opacity="1" stop-color="rgb(17.463684%, 39.03656%, 15.579224%)" offset="0.660156"/><stop stop-opacity="1" stop-color="rgb(17.185974%, 38.754272%, 15.548706%)" offset="0.664062"/><stop stop-opacity="1" stop-color="rgb(16.906738%, 38.471985%, 15.516663%)" offset="0.667969"/><stop stop-opacity="1" stop-color="rgb(16.629028%, 38.191223%, 15.486145%)" offset="0.671875"/><stop stop-opacity="1" stop-color="rgb(16.349792%, 37.908936%, 15.454102%)" offset="0.675781"/><stop stop-opacity="1" stop-color="rgb(16.070557%, 37.626648%, 15.423584%)" offset="0.679688"/><stop stop-opacity="1" stop-color="rgb(15.791321%, 37.34436%, 15.391541%)" offset="0.683594"/><stop stop-opacity="1" stop-color="rgb(15.513611%, 37.063599%, 15.361023%)" offset="0.6875"/><stop stop-opacity="1" stop-color="rgb(15.234375%, 36.781311%, 15.328979%)" offset="0.691406"/><stop stop-opacity="1" stop-color="rgb(14.956665%, 36.499023%, 15.298462%)" offset="0.695312"/><stop stop-opacity="1" stop-color="rgb(14.677429%, 36.216736%, 15.266418%)" offset="0.699219"/><stop stop-opacity="1" stop-color="rgb(14.399719%, 35.934448%, 15.235901%)" offset="0.703125"/><stop stop-opacity="1" stop-color="rgb(14.120483%, 35.652161%, 15.203857%)" offset="0.707031"/><stop stop-opacity="1" stop-color="rgb(13.841248%, 35.371399%, 15.17334%)" offset="0.710938"/><stop stop-opacity="1" stop-color="rgb(13.562012%, 35.089111%, 15.141296%)" offset="0.714844"/><stop stop-opacity="1" stop-color="rgb(13.284302%, 34.806824%, 15.110779%)" offset="0.71875"/><stop stop-opacity="1" stop-color="rgb(13.005066%, 34.524536%, 15.078735%)" offset="0.722656"/><stop stop-opacity="1" stop-color="rgb(12.727356%, 34.242249%, 15.048218%)" offset="0.726562"/><stop stop-opacity="1" stop-color="rgb(12.44812%, 33.959961%, 15.016174%)" offset="0.730469"/><stop stop-opacity="1" stop-color="rgb(12.168884%, 33.679199%, 14.985657%)" offset="0.734375"/><stop stop-opacity="1" stop-color="rgb(11.889648%, 33.396912%, 14.953613%)" offset="0.738281"/><stop stop-opacity="1" stop-color="rgb(11.611938%, 33.114624%, 14.923096%)" offset="0.742188"/><stop stop-opacity="1" stop-color="rgb(11.505127%, 33.006287%, 14.910889%)" offset="0.75"/><stop stop-opacity="1" stop-color="rgb(11.399841%, 32.899475%, 14.898682%)" offset="0.955515"/><stop stop-opacity="1" stop-color="rgb(11.399841%, 32.899475%, 14.898682%)" offset="1"/></linearGradient></defs><g clip-path="url(#94e9ba2984)"><g clip-path="url(#73b1f12a32)"><path fill="url(#0cc31fcdc0)" d="M 85.746094 91.984375 L 85.746094 193.234375 L 288.996094 193.234375 L 288.996094 91.984375 Z M 85.746094 91.984375 " fill-rule="nonzero"/></g></g><path fill="#88c032" d="M 106.394531 148.058594 C 118.378906 190.808594 166.921875 163.949219 174.160156 148.496094 C 162.957031 175.574219 107.742188 193.628906 100.742188 146.550781 Z M 106.394531 148.058594 " fill-opacity="1" fill-rule="evenodd"/><path fill="#1d5426" d="M 258.144531 141.988281 C 253.945312 107.105469 220.839844 101.921875 188.417969 120.308594 C 217.820312 91.730469 267.9375 106.273438 263.785156 145.96875 L 258.148438 141.988281 Z M 258.144531 141.988281 " fill-opacity="1" fill-rule="evenodd"/><g fill="#fffff0" fill-opacity="1"><g transform="translate(64.875, 247.868012)"><g><path d="M 23.921875 -7.0625 L 8.640625 -7.0625 L 5.625 0 L -0.21875 0 L 13.53125 -30.546875 L 19.109375 -30.546875 L 32.90625 0 L 26.96875 0 Z M 22.03125 -11.515625 L 16.28125 -24.875 L 10.5625 -11.515625 Z M 22.03125 -11.515625 "/></g></g></g><g fill="#fffff0" fill-opacity="1"><g transform="translate(97.55311, 247.868012)"><g><path d="M 10.296875 -25.75 L 0.171875 -25.75 L 0.171875 -30.546875 L 26.09375 -30.546875 L 26.09375 -25.75 L 15.96875 -25.75 L 15.96875 0 L 10.296875 0 Z M 10.296875 -25.75 "/></g></g></g><g fill="#fffff0" fill-opacity="1"><g transform="translate(123.817757, 247.868012)"><g><path d="M 4.109375 -30.546875 L 9.78125 -30.546875 L 9.78125 0 L 4.109375 0 Z M 4.109375 -30.546875 "/></g></g></g><g fill="#fffff0" fill-opacity="1"><g transform="translate(137.735408, 247.868012)"><g><path d="M 17.28125 -10.78125 L 17.28125 0 L 11.609375 0 L 11.609375 -10.6875 L -0.390625 -30.546875 L 5.671875 -30.546875 L 14.625 -15.671875 L 23.65625 -30.546875 L 29.234375 -30.546875 Z M 17.28125 -10.78125 "/></g></g></g><g fill="#fffff0" fill-opacity="1"><g transform="translate(166.574175, 247.868012)"><g><path d="M 23.921875 -7.0625 L 8.640625 -7.0625 L 5.625 0 L -0.21875 0 L 13.53125 -30.546875 L 19.109375 -30.546875 L 32.90625 0 L 26.96875 0 Z M 22.03125 -11.515625 L 16.28125 -24.875 L 10.5625 -11.515625 Z M 22.03125 -11.515625 "/></g></g></g><g fill="#fffff0" fill-opacity="1"><g transform="translate(199.252284, 247.868012)"><g><path d="M 31.25 -30.546875 L 31.25 0 L 25.578125 0 L 25.578125 -13.09375 L 9.78125 -13.09375 L 9.78125 0 L 4.109375 0 L 4.109375 -30.546875 L 9.78125 -30.546875 L 9.78125 -17.9375 L 25.578125 -17.9375 L 25.578125 -30.546875 Z M 31.25 -30.546875 "/></g></g></g><g fill="#fffff0" fill-opacity="1"><g transform="translate(234.591763, 247.868012)"><g/></g></g><g fill="#fffff0" fill-opacity="1"><g transform="translate(246.633362, 247.868012)"><g><path d="M 16.671875 -30.546875 C 19.316406 -30.546875 21.617188 -30.109375 23.578125 -29.234375 C 25.546875 -28.367188 27.050781 -27.117188 28.09375 -25.484375 C 29.144531 -23.859375 29.671875 -21.925781 29.671875 -19.6875 C 29.671875 -17.46875 29.144531 -15.535156 28.09375 -13.890625 C 27.050781 -12.253906 25.546875 -11 23.578125 -10.125 C 21.617188 -9.25 19.316406 -8.8125 16.671875 -8.8125 L 9.78125 -8.8125 L 9.78125 0 L 4.109375 0 L 4.109375 -30.546875 Z M 16.40625 -13.609375 C 18.882812 -13.609375 20.757812 -14.132812 22.03125 -15.1875 C 23.3125 -16.238281 23.953125 -17.738281 23.953125 -19.6875 C 23.953125 -21.632812 23.3125 -23.128906 22.03125 -24.171875 C 20.757812 -25.222656 18.882812 -25.75 16.40625 -25.75 L 9.78125 -25.75 L 9.78125 -13.609375 Z M 16.40625 -13.609375 "/></g></g></g><g fill="#fffff0" fill-opacity="1"><g transform="translate(278.308007, 247.868012)"><g><path d="M 14.625 -12.78125 L 9.78125 -7.8125 L 9.78125 0 L 4.109375 0 L 4.109375 -30.546875 L 9.78125 -30.546875 L 9.78125 -14.875 L 24.875 -30.546875 L 31.25 -30.546875 L 18.421875 -16.890625 L 32.03125 0 L 25.40625 0 Z M 14.625 -12.78125 "/></g></g></g><g fill="#1d5426" fill-opacity="1"><g transform="translate(98.986557, 278.034123)"><g><path d="M 12.9375 -2.6875 L 12.9375 0 L 1.71875 0 L 1.71875 -14.484375 L 12.65625 -14.484375 L 12.65625 -11.796875 L 5.046875 -11.796875 L 5.046875 -8.640625 L 11.765625 -8.640625 L 11.765625 -6.046875 L 5.046875 -6.046875 L 5.046875 -2.6875 Z M 12.9375 -2.6875 "/></g></g></g><g fill="#1d5426" fill-opacity="1"><g transform="translate(124.353689, 278.034123)"><g><path d="M 14.890625 0 L 14.875 -8.6875 L 10.609375 -1.53125 L 9.109375 -1.53125 L 4.859375 -8.5 L 4.859375 0 L 1.71875 0 L 1.71875 -14.484375 L 4.484375 -14.484375 L 9.90625 -5.484375 L 15.25 -14.484375 L 18 -14.484375 L 18.046875 0 Z M 14.890625 0 "/></g></g></g><g fill="#1d5426" fill-opacity="1"><g transform="translate(155.594959, 278.034123)"><g><path d="M 7.984375 -14.484375 C 9.265625 -14.484375 10.378906 -14.269531 11.328125 -13.84375 C 12.273438 -13.414062 13.003906 -12.804688 13.515625 -12.015625 C 14.023438 -11.234375 14.28125 -10.304688 14.28125 -9.234375 C 14.28125 -8.171875 14.023438 -7.238281 13.515625 -6.4375 C 13.003906 -5.644531 12.273438 -5.039062 11.328125 -4.625 C 10.378906 -4.207031 9.265625 -4 7.984375 -4 L 5.0625 -4 L 5.0625 0 L 1.71875 0 L 1.71875 -14.484375 Z M 7.796875 -6.71875 C 8.804688 -6.71875 9.570312 -6.9375 10.09375 -7.375 C 10.613281 -7.8125 10.875 -8.429688 10.875 -9.234375 C 10.875 -10.046875 10.613281 -10.664062 10.09375 -11.09375 C 9.570312 -11.53125 8.804688 -11.75 7.796875 -11.75 L 5.0625 -11.75 L 5.0625 -6.71875 Z M 7.796875 -6.71875 "/></g></g></g><g fill="#1d5426" fill-opacity="1"><g transform="translate(182.223791, 278.034123)"><g><path d="M 11.25 -3.109375 L 4.53125 -3.109375 L 3.25 0 L -0.1875 0 L 6.265625 -14.484375 L 9.578125 -14.484375 L 16.046875 0 L 12.53125 0 Z M 10.203125 -5.640625 L 7.90625 -11.1875 L 5.609375 -5.640625 Z M 10.203125 -5.640625 "/></g></g></g><g fill="#1d5426" fill-opacity="1"><g transform="translate(209.555862, 278.034123)"><g><path d="M 4.71875 -11.75 L 0.078125 -11.75 L 0.078125 -14.484375 L 12.703125 -14.484375 L 12.703125 -11.75 L 8.0625 -11.75 L 8.0625 0 L 4.71875 0 Z M 4.71875 -11.75 "/></g></g></g><g fill="#1d5426" fill-opacity="1"><g transform="translate(233.826765, 278.034123)"><g><path d="M 15 -14.484375 L 15 0 L 11.640625 0 L 11.640625 -5.9375 L 5.0625 -5.9375 L 5.0625 0 L 1.71875 0 L 1.71875 -14.484375 L 5.0625 -14.484375 L 5.0625 -8.765625 L 11.640625 -8.765625 L 11.640625 -14.484375 Z M 15 -14.484375 "/></g></g></g><g fill="#1d5426" fill-opacity="1"><g transform="translate(262.027547, 278.034123)"><g><path d="M 8.671875 -5.125 L 8.671875 0 L 5.3125 0 L 5.3125 -5.171875 L -0.296875 -14.484375 L 3.265625 -14.484375 L 7.140625 -8.046875 L 11 -14.484375 L 14.296875 -14.484375 Z M 8.671875 -5.125 "/></g></g></g></svg>